<svg width="200" height="200" viewBox="0 0 200 200" fill="none" xmlns="http://www.w3.org/2000/svg">
<path d="M54.6152 50.2996C42.8886 38.9287 24.231 41.2092 15.323 55.1023L4.41501 72.1146C1.30577 76.9638 -0.232065 82.7307 0.0283762 88.5644L1.77768 127.748C2.06919 134.277 4.5945 140.479 8.89258 145.222L35.0623 174.097C37.1843 176.438 39.687 178.366 42.4535 179.791L66.8975 192.379C69.4804 193.709 72.2562 194.581 75.1119 194.96L111.452 199.784C114.427 200.178 117.444 200.032 120.371 199.351L153.886 191.556C158.926 190.384 163.519 187.669 167.08 183.757L181.798 167.589C184.109 165.051 185.93 162.069 187.161 158.808L198.179 129.619C199.382 126.432 200 123.037 200 119.61V85.6026C200 81.6365 199.172 77.7181 197.575 74.1215L183.318 42.0185C181.294 37.4606 178.105 33.5778 174.103 30.7999L145.966 11.2693C144.091 9.96764 142.062 8.92605 139.931 8.17061L119.418 0.899765C113.892 -1.05887 107.788 0.230331 103.42 4.27831C99.9652 7.47998 97.9724 12.0669 97.9379 16.8965L97.4883 79.8401C97.4777 81.3236 96.8705 82.7338 95.8156 83.7247C93.8788 85.544 90.9369 85.5196 89.0279 83.6685L54.6152 50.2996Z" fill="#3C6839"/>
</svg>
